<svg width="28" height="28" viewBox="0 0 28 28" fill="none" xmlns="http://www.w3.org/2000/svg">
<path d="M10.36 1.67993C9.9887 1.67993 9.6326 1.82743 9.37005 2.08998C9.1075 2.35253 8.96 2.70863 8.96 3.07993C8.96 3.45123 9.1075 3.80733 9.37005 4.06988C9.6326 4.33243 9.9887 4.47993 10.36 4.47993C10.7313 4.47993 11.0874 4.33243 11.35 4.06988C11.6125 3.80733 11.76 3.45123 11.76 3.07993C11.76 2.70863 11.6125 2.35253 11.35 2.08998C11.0874 1.82743 10.7313 1.67993 10.36 1.67993ZM17.64 1.67993C17.2687 1.67993 16.9126 1.82743 16.6501 2.08998C16.3875 2.35253 16.24 2.70863 16.24 3.07993C16.24 3.45123 16.3875 3.80733 16.6501 4.06988C16.9126 4.33243 17.2687 4.47993 17.64 4.47993C18.0113 4.47993 18.3674 4.33243 18.63 4.06988C18.8925 3.80733 19.04 3.45123 19.04 3.07993C19.04 2.70863 18.8925 2.35253 18.63 2.08998C18.3674 1.82743 18.0113 1.67993 17.64 1.67993ZM19.0542 6.70462C18.9599 6.704 18.8669 6.72723 18.7839 6.77217C18.7009 6.81711 18.6306 6.88228 18.5795 6.96165C18.5795 6.96165 16.7642 9.51993 14 9.51993C11.2358 9.51993 9.42047 6.96165 9.42047 6.96165C9.36819 6.88359 9.29711 6.81993 9.21377 6.77655C9.13044 6.73316 9.03753 6.71143 8.94359 6.71337C8.84181 6.71557 8.74254 6.74548 8.65648 6.79987C8.57042 6.85427 8.50081 6.93109 8.45514 7.02209C8.40948 7.11308 8.38948 7.21481 8.3973 7.31632C8.40512 7.41783 8.44047 7.51529 8.49953 7.59821C8.49953 7.59821 10.5617 10.6399 14 10.6399C17.4383 10.6399 19.5005 7.59821 19.5005 7.59821C19.5621 7.51512 19.5995 7.41659 19.6085 7.31355C19.6175 7.21051 19.5978 7.10698 19.5516 7.01444C19.5054 6.92191 19.4345 6.84397 19.3467 6.78928C19.2589 6.7346 19.1577 6.70529 19.0542 6.70462ZM6.72875 8.27853C6.65952 8.27867 6.59091 8.29165 6.52641 8.31681L3.16641 9.55493C3.0833 9.58162 3.00758 9.62736 2.9453 9.68851C2.88301 9.74966 2.83587 9.82452 2.80766 9.90712L0.0853136 14.2635C0.0413645 14.3341 0.0136703 14.4135 0.00423993 14.4961C-0.00519042 14.5787 0.0038796 14.6623 0.030792 14.741C0.0577044 14.8196 0.101784 14.8913 0.159834 14.9508C0.217884 15.0103 0.288448 15.0561 0.366407 15.0849L2.8 15.9818V22.3999C2.80011 22.5144 2.83528 22.6261 2.90079 22.7199C2.9663 22.8138 3.059 22.8854 3.16641 22.9249L13.8064 26.8449C13.9314 26.891 14.0686 26.891 14.1936 26.8449L24.8336 22.9249C24.941 22.8854 25.0337 22.8138 25.0992 22.7199C25.1647 22.6261 25.1999 22.5144 25.2 22.3999V15.9818L27.6336 15.0849C27.7116 15.0561 27.7821 15.0103 27.8402 14.9508C27.8982 14.8913 27.9423 14.8196 27.9692 14.741C27.9961 14.6623 28.0052 14.5787 27.9958 14.4961C27.9863 14.4135 27.9586 14.3341 27.9147 14.2635L25.1913 9.90493C25.1629 9.82286 25.1158 9.74851 25.0537 9.68776C24.9916 9.62702 24.9163 9.58154 24.8336 9.55493C24.8264 9.55223 24.8191 9.54968 24.8117 9.54728L21.4736 8.31681C21.4035 8.2898 21.3288 8.27715 21.2538 8.27962C21.1236 8.28445 20.9993 8.33446 20.9021 8.42105C20.8048 8.50764 20.7408 8.6254 20.721 8.75409C20.7012 8.88277 20.7268 9.01433 20.7935 9.12616C20.8602 9.23798 20.9638 9.32307 21.0864 9.36681L23.0213 10.0799L14 13.4038L4.97875 10.0799L6.91359 9.36681C7.03815 9.32292 7.14319 9.23644 7.21016 9.12262C7.27714 9.00881 7.30174 8.87499 7.27963 8.7448C7.25751 8.6146 7.19011 8.49641 7.08931 8.4111C6.98851 8.32578 6.86081 8.27883 6.72875 8.27853ZM3.59406 10.7624L13.1611 14.2865V14.2876L10.967 17.7974L1.39891 14.2734L3.59406 10.7624ZM24.4059 10.7624L26.6011 14.2734L17.033 17.7974L14.84 14.2876L24.4059 10.7624ZM13.44 15.9512V25.516L3.92 22.0095V16.3942L11.0064 19.0049C11.1271 19.0494 11.2594 19.0509 11.3811 19.0093C11.5028 18.9676 11.6065 18.8854 11.6747 18.7763L13.44 15.9512ZM14.56 15.9512L16.3253 18.7763C16.3935 18.8854 16.4972 18.9676 16.6189 19.0093C16.7406 19.0509 16.8729 19.0494 16.9936 19.0049L24.08 16.3942V22.0095L14.56 25.516V15.9512Z" fill="#343434"/>
</svg>
