<svg width="28" height="28" viewBox="0 0 28 28" fill="none" xmlns="http://www.w3.org/2000/svg">
<path d="M18.4713 0.552253C18.4441 0.552841 18.4171 0.5554 18.3903 0.559909H10.08C9.93148 0.559924 9.78905 0.618929 9.68404 0.723946C9.57902 0.828963 9.52001 0.971393 9.52 1.11991V11.7599H5.82859C3.5178 11.7599 1.63516 13.6514 1.63516 15.9687C1.63516 16.007 1.63609 16.5154 1.63625 16.8251C0.698316 17.1191 0 17.9691 0 19.0016C0 19.917 0.590674 20.6309 1.36609 21.0032L2.39859 23.6752L2.38328 23.6271C2.55407 24.2215 2.97127 24.5962 3.39937 24.8258L2.96844 25.6932C2.57768 26.4747 2.90019 27.4408 3.68156 27.8315C3.90773 27.9441 4.15331 27.9999 4.39359 27.9999C4.97866 27.9999 5.54195 27.6737 5.81984 27.1205V27.1194L6.77578 25.1999H14.5053L15.4602 27.1194L15.4613 27.1205C15.7389 27.6733 16.3013 27.9999 16.8864 27.9999C17.1267 27.9999 17.3723 27.9441 17.5984 27.8315C18.3798 27.4408 18.7023 26.4747 18.3116 25.6932L17.78 24.6235C17.8258 24.6348 17.8728 24.6404 17.92 24.6399H24.08V25.1999H27.44V24.0799V1.11991C27.44 0.971393 27.381 0.828963 27.276 0.723946C27.1709 0.618929 27.0285 0.559924 26.88 0.559909H18.5664C18.535 0.554654 18.5031 0.552092 18.4713 0.552253ZM10.64 1.67991H17.92V13.0691C17.1557 12.2649 16.0813 11.7599 14.8903 11.7599H10.64V1.67991ZM19.04 1.67991H26.32V23.5199H18.3816L19.3539 21.0043C20.1293 20.6318 20.72 19.9175 20.72 19.0016C20.72 17.9693 20.0216 17.1192 19.0837 16.8251C19.0838 16.7154 19.0837 16.6824 19.0837 16.5407C19.0839 16.2562 19.0837 15.9942 19.0837 15.9687C19.0837 15.7304 19.0596 15.4985 19.0214 15.2708C19.0344 15.2216 19.0407 15.1708 19.04 15.1199V1.67991ZM21.2712 11.7523C21.1229 11.7546 20.9816 11.8156 20.8782 11.9221C20.7749 12.0285 20.718 12.1716 20.72 12.3199V13.9999C20.719 14.0741 20.7327 14.1478 20.7603 14.2167C20.788 14.2855 20.8291 14.3482 20.8812 14.401C20.9333 14.4539 20.9954 14.4959 21.0638 14.5245C21.1323 14.5531 21.2058 14.5679 21.28 14.5679C21.3542 14.5679 21.4277 14.5531 21.4962 14.5245C21.5646 14.4959 21.6267 14.4539 21.6788 14.401C21.7309 14.3482 21.772 14.2855 21.7997 14.2167C21.8273 14.1478 21.841 14.0741 21.84 13.9999V12.3199C21.841 12.245 21.827 12.1706 21.7988 12.1012C21.7705 12.0318 21.7287 11.9688 21.6756 11.9158C21.6226 11.8629 21.5595 11.8212 21.49 11.7931C21.4206 11.765 21.3462 11.7511 21.2712 11.7523ZM5.82859 12.8799H9.98594C10.0464 12.8899 10.1081 12.8899 10.1686 12.8799H14.8903C16.5934 12.8799 17.9638 14.2552 17.9638 15.9687C17.9638 15.9476 17.9639 16.2551 17.9638 16.5396C17.9637 16.6854 17.9627 16.7277 17.9627 16.8327C17.1938 17.0015 16.5284 17.4673 16.2575 18.1944L16.2706 18.1627L15.6505 19.5594C15.6403 19.5563 15.6358 19.555 15.6253 19.5518C15.3134 19.4572 14.8776 19.3357 14.3522 19.216C13.3013 18.9766 11.8933 18.7413 10.4059 18.7413C8.91833 18.7413 7.48841 18.9781 6.41375 19.2182C5.87642 19.3382 5.42861 19.4592 5.10781 19.554C5.08899 19.5595 5.0809 19.5628 5.06297 19.5682L4.48438 18.2798C4.22933 17.5202 3.55134 17.0178 2.75625 16.8415C2.7561 16.5172 2.75516 15.9364 2.75516 15.9687C2.75516 14.2539 4.1253 12.8799 5.82859 12.8799ZM2.30562 17.8083C2.84606 17.8083 3.29156 18.1703 3.43656 18.6669L3.4475 18.7041L4.50953 21.0699L5.00828 20.7604C5.02564 20.7542 5.04664 20.7461 5.07937 20.7352C5.15806 20.709 5.276 20.6721 5.425 20.628C5.723 20.54 6.14779 20.4247 6.65766 20.3108C7.67739 20.083 9.03811 19.8613 10.4059 19.8613C11.774 19.8613 13.1101 20.0823 14.1039 20.3087C14.6008 20.4219 15.0123 20.5363 15.3005 20.6237C15.4446 20.6673 15.5582 20.7037 15.6341 20.7298C15.6664 20.7408 15.6874 20.7488 15.7041 20.7549L16.2061 21.0655L17.3009 18.6013L17.3075 18.5849C17.4771 18.1297 17.9023 17.8083 18.4144 17.8083C19.074 17.8083 19.6 18.335 19.6 19.0016C19.6 19.5538 19.2275 20.0059 18.7261 20.1457L18.4559 20.2212L17.2681 23.2946L17.2605 23.3187C17.1583 23.6741 16.8614 23.8518 16.4916 23.9662C16.1217 24.0805 15.7773 24.0799 15.7773 24.0799H15.7741H14.9319C14.9087 24.0763 14.8853 24.0741 14.8619 24.0733C14.83 24.0728 14.7982 24.075 14.7667 24.0799H6.44656H4.94594H4.94266C4.94266 24.0799 4.59822 24.0805 4.22844 23.9662C3.85868 23.8518 3.56176 23.6744 3.45953 23.3187L3.45187 23.2946L2.26406 20.2201L1.99281 20.1446C1.49034 20.0051 1.12 19.555 1.12 19.0016C1.12 18.3341 1.64504 17.8083 2.30562 17.8083ZM16.7442 25.0555L17.3097 26.193V26.1941C17.4296 26.4341 17.3376 26.7096 17.0975 26.8296C17.0272 26.8644 16.9571 26.8799 16.8864 26.8799C16.7121 26.8799 16.5483 26.7892 16.462 26.6174V26.6196L15.7566 25.1999H15.7653C15.7653 25.1999 16.2193 25.2033 16.7442 25.0555ZM4.48438 25.1605C4.75748 25.1976 4.95469 25.1999 4.95469 25.1999H5.52453L4.81906 26.6174C4.73295 26.7888 4.56789 26.8799 4.39359 26.8799C4.32287 26.8799 4.25278 26.8644 4.1825 26.8296C3.94243 26.7096 3.85035 26.4341 3.97031 26.1941V26.193L4.48438 25.1605Z" fill="#343434"/>
</svg>
